<svg width="14" height="14" viewBox="0 0 14 14" fill="none" xmlns="http://www.w3.org/2000/svg">
<g clip-path="url(#clip0_13018_1943)">
<path d="M7.58398 1.16602H3.50065C3.19123 1.16602 2.89449 1.28893 2.67569 1.50772C2.4569 1.72652 2.33398 2.02326 2.33398 2.33268V11.666C2.33398 11.9754 2.4569 12.2722 2.67569 12.491C2.89449 12.7098 3.19123 12.8327 3.50065 12.8327H10.5006C10.8101 12.8327 11.1068 12.7098 11.3256 12.491C11.5444 12.2722 11.6673 11.9754 11.6673 11.666V5.24935L7.58398 1.16602Z" stroke="black" stroke-linecap="round" stroke-linejoin="round"/>
<path d="M7.58398 1.16602V5.24935H11.6673" stroke="black" stroke-linecap="round" stroke-linejoin="round"/>
<path d="M6.43999 11.4545H6.81641L6.81818 11.0479C7.5799 10.9929 8.01669 10.5739 8.01847 9.97905C8.01669 9.34872 7.49645 9.06108 6.94957 8.93146L6.83239 8.90128L6.83949 7.88743C7.12358 7.93714 7.30646 8.1076 7.33487 8.36328H7.96875C7.9581 7.79865 7.5142 7.38672 6.84304 7.3228L6.84482 6.90909H6.46839L6.46662 7.3228C5.80078 7.39027 5.32138 7.79865 5.32315 8.38636C5.32315 8.90838 5.69425 9.20845 6.29261 9.36293L6.45241 9.40376L6.44531 10.478C6.12749 10.4283 5.89844 10.2472 5.87536 9.92578H5.22727C5.25213 10.5916 5.71023 10.9876 6.44176 11.0479L6.43999 11.4545ZM6.82173 10.478L6.82884 9.5032C7.15199 9.5973 7.35795 9.72159 7.35973 9.97372C7.35795 10.2365 7.14666 10.4247 6.82173 10.478ZM6.45597 8.8054C6.21094 8.72727 5.98722 8.59766 5.99077 8.34553C5.99254 8.11648 6.16477 7.93892 6.46307 7.88743L6.45597 8.8054Z" fill="black"/>
</g>
<defs>
<clipPath id="clip0_13018_1943">
<rect width="14" height="14" fill="white"/>
</clipPath>
</defs>
</svg>
