<svg width="98" height="25" viewBox="0 0 98 25" fill="none" xmlns="http://www.w3.org/2000/svg">
<path d="M45.466 18H43.324V12.492H37.618V18H35.476V5.274H37.618V10.728H43.324V5.274H45.466V18ZM50.8435 18H48.7915V8.712L50.8435 8.532V18ZM51.0775 5.508C51.0775 5.856 50.9635 6.138 50.7355 6.354C50.5195 6.57 50.2135 6.678 49.8175 6.678C49.4215 6.678 49.1095 6.57 48.8815 6.354C48.6655 6.138 48.5575 5.856 48.5575 5.508C48.5575 5.16 48.6655 4.878 48.8815 4.662C49.1095 4.446 49.4215 4.338 49.8175 4.338C50.2135 4.338 50.5195 4.446 50.7355 4.662C50.9635 4.878 51.0775 5.16 51.0775 5.508ZM59.6053 17.784C59.2813 17.928 58.9753 18.03 58.6873 18.09C58.4113 18.15 58.1173 18.18 57.8053 18.18C56.7733 18.18 56.0113 17.874 55.5193 17.262C55.0393 16.638 54.7993 15.726 54.7993 14.526V10.242H52.9093V8.64H54.7993V6.372L56.8513 6.192V8.64H59.2273V10.242H56.8513V14.238C56.8513 14.538 56.8633 14.826 56.8873 15.102C56.9233 15.366 56.9833 15.606 57.0673 15.822C57.1633 16.026 57.2953 16.188 57.4633 16.308C57.6433 16.428 57.8713 16.488 58.1473 16.488C58.3153 16.488 58.4893 16.476 58.6693 16.452C58.8613 16.416 59.0533 16.368 59.2453 16.308L59.6053 17.784ZM73.1119 18C73.0159 17.616 72.9559 17.208 72.9319 16.776C72.9079 16.344 72.8959 15.954 72.8959 15.606V12.24C72.8959 11.544 72.7759 11.022 72.5359 10.674C72.3079 10.326 71.9299 10.152 71.4019 10.152C71.0659 10.152 70.7059 10.224 70.3219 10.368C69.9499 10.5 69.5959 10.686 69.2599 10.926C69.3319 11.31 69.3679 11.706 69.3679 12.114V15.606C69.3679 15.954 69.3799 16.344 69.4039 16.776C69.4279 17.208 69.4879 17.616 69.5839 18H67.5319C67.4359 17.616 67.3759 17.208 67.3519 16.776C67.3279 16.344 67.3159 15.954 67.3159 15.606V12.24C67.3159 11.544 67.1959 11.022 66.9559 10.674C66.7279 10.326 66.3499 10.152 65.8219 10.152C65.5219 10.152 65.1919 10.224 64.8319 10.368C64.4839 10.5 64.1359 10.686 63.7879 10.926V18H61.7359V8.712L63.4639 8.532L63.6259 9.702C64.0819 9.318 64.5499 9.018 65.0299 8.802C65.5219 8.574 66.0319 8.46 66.5599 8.46C67.1239 8.46 67.5919 8.586 67.9639 8.838C68.3479 9.09 68.6539 9.432 68.8819 9.864C69.3619 9.42 69.8659 9.078 70.3939 8.838C70.9339 8.586 71.4919 8.46 72.0679 8.46C73.0039 8.46 73.7179 8.784 74.2099 9.432C74.7019 10.08 74.9479 10.974 74.9479 12.114V15.606C74.9479 15.954 74.9599 16.344 74.9839 16.776C75.0079 17.208 75.0679 17.616 75.1639 18H73.1119ZM83.1392 18C83.0912 17.844 83.0552 17.664 83.0312 17.46C83.0072 17.244 82.9832 17.046 82.9592 16.866C82.5752 17.25 82.1252 17.55 81.6092 17.766C81.0932 17.982 80.5772 18.09 80.0612 18.09C79.6532 18.09 79.2812 18.024 78.9452 17.892C78.6092 17.748 78.3212 17.556 78.0812 17.316C77.8412 17.064 77.6552 16.764 77.5232 16.416C77.3912 16.068 77.3252 15.684 77.3252 15.264C77.3252 14.328 77.6492 13.608 78.2972 13.104C78.9452 12.588 79.8332 12.33 80.9612 12.33C81.2612 12.33 81.5732 12.348 81.8972 12.384C82.2332 12.408 82.5572 12.45 82.8692 12.51V12.276C82.8692 11.604 82.6832 11.082 82.3112 10.71C81.9512 10.326 81.4472 10.134 80.7992 10.134C80.3912 10.134 79.9772 10.206 79.5572 10.35C79.1492 10.482 78.7532 10.65 78.3692 10.854L77.7572 9.36C78.1892 9.084 78.6932 8.868 79.2692 8.712C79.8452 8.544 80.4392 8.46 81.0512 8.46C82.2632 8.46 83.2052 8.784 83.8772 9.432C84.5492 10.08 84.8852 11.022 84.8852 12.258V15.606C84.8852 15.954 84.8972 16.344 84.9212 16.776C84.9452 17.208 85.0052 17.616 85.1012 18H83.1392ZM82.8692 13.806C82.6652 13.77 82.4492 13.746 82.2212 13.734C81.9932 13.71 81.7892 13.698 81.6092 13.698C80.8532 13.698 80.2772 13.824 79.8812 14.076C79.4972 14.316 79.3052 14.694 79.3052 15.21C79.3052 15.63 79.4252 15.954 79.6652 16.182C79.9172 16.398 80.2532 16.506 80.6732 16.506C81.0332 16.506 81.4112 16.428 81.8072 16.272C82.2032 16.104 82.5572 15.9 82.8692 15.66V13.806ZM94.0027 18C93.9067 17.616 93.8467 17.208 93.8227 16.776C93.7987 16.344 93.7867 15.954 93.7867 15.606V12.24C93.7867 11.544 93.6667 11.022 93.4267 10.674C93.1987 10.326 92.8207 10.152 92.2927 10.152C91.9207 10.152 91.5247 10.236 91.1047 10.404C90.6967 10.572 90.3007 10.8 89.9167 11.088V18H87.8647V8.712L89.5927 8.532L89.7727 9.81C90.2647 9.39 90.7807 9.06 91.3207 8.82C91.8607 8.58 92.4067 8.46 92.9587 8.46C93.8947 8.46 94.6087 8.784 95.1007 9.432C95.5927 10.08 95.8387 10.974 95.8387 12.114V15.606C95.8387 15.954 95.8507 16.344 95.8747 16.776C95.8987 17.208 95.9587 17.616 96.0547 18H94.0027Z" fill="#444444"/>
<path d="M9.664 7.42537C9.664 6.58532 8.98203 5.89648 8.15036 5.89648C7.31869 5.89648 6.63672 6.58532 6.63672 7.42537C6.63672 8.26542 7.31869 8.95426 8.15036 8.95426C8.98203 8.95426 9.664 8.26542 9.664 7.42537Z" fill="#444444"/>
<path d="M18.2636 7.42537C18.2636 6.58532 17.5816 5.89648 16.75 5.89648C15.9183 5.89648 15.2363 6.58532 15.2363 7.42537C15.2363 8.26542 15.9183 8.95426 16.75 8.95426C17.5816 8.95426 18.2636 8.26542 18.2636 7.42537Z" fill="#444444"/>
<path d="M24.4345 23.0679H22.6713V21.6734H24.4345C24.7505 21.6734 25 21.4214 25 21.1022C25 20.7829 24.7505 20.5309 24.4345 20.5309H22.6713V20.3293C22.6713 20.0101 22.4218 19.7581 22.1058 19.7581C20.6919 19.7581 19.6773 20.3965 19.3114 21.455C19.2615 21.4382 19.2116 21.4214 19.145 21.4214H1.89621V1.91532H22.7379V15.3562C22.7379 15.877 23.1703 16.3138 23.686 16.3138C24.2016 16.3138 24.6341 15.8938 24.6341 15.3562V0.957661C24.6341 0.436828 24.2016 0 23.686 0H0.948104C0.432469 0 0 0.420027 0 0.957661V22.379C0 22.8999 0.415835 23.3367 0.948104 23.3367H19.145C19.1949 23.3367 19.2448 23.3199 19.2947 23.3031C19.7106 24.5296 20.9414 25 22.1058 25C22.4218 25 22.6713 24.748 22.6713 24.4288V24.2272H24.4345C24.7505 24.2272 25 23.9751 25 23.6559C25 23.3367 24.7505 23.0679 24.4345 23.0679ZM21.5403 23.8071C20.9248 23.6895 20.2761 23.3367 20.2761 22.379C20.2761 21.4046 20.9248 21.0686 21.5403 20.9509V23.8071Z" fill="#444444"/>
<path d="M12.7242 16.0275C11.0442 16.0275 9.66364 15.7755 9.58048 15.7755C9.01494 15.6747 8.649 15.137 8.7488 14.5658C8.84861 13.9945 9.36424 13.6249 9.94641 13.7257C9.97968 13.7257 12.8074 14.2298 15.0196 13.7257C15.5851 13.6081 16.134 13.9609 16.2505 14.5154C16.3669 15.0866 16.0176 15.6411 15.4687 15.7587C14.5539 15.9603 13.6058 16.0275 12.7242 16.0275Z" fill="#444444"/>
</svg>
