<svg width="98" height="25" viewBox="0 0 98 25" fill="none" xmlns="http://www.w3.org/2000/svg">
<path d="M9.664 7.42623C9.664 6.58618 8.98203 5.89734 8.15036 5.89734C7.31869 5.89734 6.63672 6.58618 6.63672 7.42623C6.63672 8.26628 7.31869 8.95512 8.15036 8.95512C8.98203 8.95512 9.664 8.26628 9.664 7.42623Z" fill="#444444"/>
<path d="M18.2617 7.42623C18.2617 6.58618 17.5797 5.89734 16.748 5.89734C15.9163 5.89734 15.2344 6.58618 15.2344 7.42623C15.2344 8.26628 15.9163 8.95512 16.748 8.95512C17.5797 8.95512 18.2617 8.26628 18.2617 7.42623Z" fill="#444444"/>
<path d="M24.4345 23.0679H22.6713V21.6734H24.4345C24.7505 21.6734 25 21.4214 25 21.1022C25 20.7829 24.7505 20.5309 24.4345 20.5309H22.6713V20.3293C22.6713 20.0101 22.4218 19.7581 22.1058 19.7581C20.6919 19.7581 19.6773 20.3965 19.3114 21.455C19.2615 21.4382 19.2116 21.4214 19.145 21.4214H1.89621V1.91532H22.7379V15.3562C22.7379 15.877 23.1703 16.3138 23.686 16.3138C24.2016 16.3138 24.6341 15.8938 24.6341 15.3562V0.957661C24.6341 0.436828 24.2016 0 23.686 0H0.948104C0.432469 0 0 0.420027 0 0.957661V22.379C0 22.8999 0.415835 23.3367 0.948104 23.3367H19.145C19.1949 23.3367 19.2448 23.3199 19.2947 23.3031C19.7106 24.5296 20.9414 25 22.1058 25C22.4218 25 22.6713 24.748 22.6713 24.4288V24.2272H24.4345C24.7505 24.2272 25 23.9751 25 23.6559C25 23.3367 24.7505 23.0679 24.4345 23.0679ZM21.5403 23.8071C20.9248 23.6895 20.2761 23.3367 20.2761 22.379C20.2761 21.4046 20.9248 21.0686 21.5403 20.9509V23.8071Z" fill="#444444"/>
<path d="M12.7222 16.0282C11.0423 16.0282 9.66169 15.7762 9.57852 15.7762C9.01299 15.6754 8.64705 15.1378 8.74685 14.5665C8.84665 13.9953 9.36229 13.6257 9.94446 13.7265C9.97772 13.7265 12.8054 14.2305 15.0176 13.7265C15.5832 13.6089 16.1321 13.9617 16.2485 14.5161C16.365 15.0874 16.0157 15.6418 15.4668 15.7594C14.5519 15.961 13.6038 16.0282 12.7222 16.0282Z" fill="#444444"/>
<path d="M45.466 19H43.324V13.492H37.618V19H35.476V6.274H37.618V11.728H43.324V6.274H45.466V19ZM50.8435 19H48.7915V9.712L50.8435 9.532V19ZM51.0775 6.508C51.0775 6.856 50.9635 7.138 50.7355 7.354C50.5195 7.57 50.2135 7.678 49.8175 7.678C49.4215 7.678 49.1095 7.57 48.8815 7.354C48.6655 7.138 48.5575 6.856 48.5575 6.508C48.5575 6.16 48.6655 5.878 48.8815 5.662C49.1095 5.446 49.4215 5.338 49.8175 5.338C50.2135 5.338 50.5195 5.446 50.7355 5.662C50.9635 5.878 51.0775 6.16 51.0775 6.508ZM59.6053 18.784C59.2813 18.928 58.9753 19.03 58.6873 19.09C58.4113 19.15 58.1173 19.18 57.8053 19.18C56.7733 19.18 56.0113 18.874 55.5193 18.262C55.0393 17.638 54.7993 16.726 54.7993 15.526V11.242H52.9093V9.64H54.7993V7.372L56.8513 7.192V9.64H59.2273V11.242H56.8513V15.238C56.8513 15.538 56.8633 15.826 56.8873 16.102C56.9233 16.366 56.9833 16.606 57.0673 16.822C57.1633 17.026 57.2953 17.188 57.4633 17.308C57.6433 17.428 57.8713 17.488 58.1473 17.488C58.3153 17.488 58.4893 17.476 58.6693 17.452C58.8613 17.416 59.0533 17.368 59.2453 17.308L59.6053 18.784ZM73.1119 19C73.0159 18.616 72.9559 18.208 72.9319 17.776C72.9079 17.344 72.8959 16.954 72.8959 16.606V13.24C72.8959 12.544 72.7759 12.022 72.5359 11.674C72.3079 11.326 71.9299 11.152 71.4019 11.152C71.0659 11.152 70.7059 11.224 70.3219 11.368C69.9499 11.5 69.5959 11.686 69.2599 11.926C69.3319 12.31 69.3679 12.706 69.3679 13.114V16.606C69.3679 16.954 69.3799 17.344 69.4039 17.776C69.4279 18.208 69.4879 18.616 69.5839 19H67.5319C67.4359 18.616 67.3759 18.208 67.3519 17.776C67.3279 17.344 67.3159 16.954 67.3159 16.606V13.24C67.3159 12.544 67.1959 12.022 66.9559 11.674C66.7279 11.326 66.3499 11.152 65.8219 11.152C65.5219 11.152 65.1919 11.224 64.8319 11.368C64.4839 11.5 64.1359 11.686 63.7879 11.926V19H61.7359V9.712L63.4639 9.532L63.6259 10.702C64.0819 10.318 64.5499 10.018 65.0299 9.802C65.5219 9.574 66.0319 9.46 66.5599 9.46C67.1239 9.46 67.5919 9.586 67.9639 9.838C68.3479 10.09 68.6539 10.432 68.8819 10.864C69.3619 10.42 69.8659 10.078 70.3939 9.838C70.9339 9.586 71.4919 9.46 72.0679 9.46C73.0039 9.46 73.7179 9.784 74.2099 10.432C74.7019 11.08 74.9479 11.974 74.9479 13.114V16.606C74.9479 16.954 74.9599 17.344 74.9839 17.776C75.0079 18.208 75.0679 18.616 75.1639 19H73.1119ZM83.1392 19C83.0912 18.844 83.0552 18.664 83.0312 18.46C83.0072 18.244 82.9832 18.046 82.9592 17.866C82.5752 18.25 82.1252 18.55 81.6092 18.766C81.0932 18.982 80.5772 19.09 80.0612 19.09C79.6532 19.09 79.2812 19.024 78.9452 18.892C78.6092 18.748 78.3212 18.556 78.0812 18.316C77.8412 18.064 77.6552 17.764 77.5232 17.416C77.3912 17.068 77.3252 16.684 77.3252 16.264C77.3252 15.328 77.6492 14.608 78.2972 14.104C78.9452 13.588 79.8332 13.33 80.9612 13.33C81.2612 13.33 81.5732 13.348 81.8972 13.384C82.2332 13.408 82.5572 13.45 82.8692 13.51V13.276C82.8692 12.604 82.6832 12.082 82.3112 11.71C81.9512 11.326 81.4472 11.134 80.7992 11.134C80.3912 11.134 79.9772 11.206 79.5572 11.35C79.1492 11.482 78.7532 11.65 78.3692 11.854L77.7572 10.36C78.1892 10.084 78.6932 9.868 79.2692 9.712C79.8452 9.544 80.4392 9.46 81.0512 9.46C82.2632 9.46 83.2052 9.784 83.8772 10.432C84.5492 11.08 84.8852 12.022 84.8852 13.258V16.606C84.8852 16.954 84.8972 17.344 84.9212 17.776C84.9452 18.208 85.0052 18.616 85.1012 19H83.1392ZM82.8692 14.806C82.6652 14.77 82.4492 14.746 82.2212 14.734C81.9932 14.71 81.7892 14.698 81.6092 14.698C80.8532 14.698 80.2772 14.824 79.8812 15.076C79.4972 15.316 79.3052 15.694 79.3052 16.21C79.3052 16.63 79.4252 16.954 79.6652 17.182C79.9172 17.398 80.2532 17.506 80.6732 17.506C81.0332 17.506 81.4112 17.428 81.8072 17.272C82.2032 17.104 82.5572 16.9 82.8692 16.66V14.806ZM94.0027 19C93.9067 18.616 93.8467 18.208 93.8227 17.776C93.7987 17.344 93.7867 16.954 93.7867 16.606V13.24C93.7867 12.544 93.6667 12.022 93.4267 11.674C93.1987 11.326 92.8207 11.152 92.2927 11.152C91.9207 11.152 91.5247 11.236 91.1047 11.404C90.6967 11.572 90.3007 11.8 89.9167 12.088V19H87.8647V9.712L89.5927 9.532L89.7727 10.81C90.2647 10.39 90.7807 10.06 91.3207 9.82C91.8607 9.58 92.4067 9.46 92.9587 9.46C93.8947 9.46 94.6087 9.784 95.1007 10.432C95.5927 11.08 95.8387 11.974 95.8387 13.114V16.606C95.8387 16.954 95.8507 17.344 95.8747 17.776C95.8987 18.208 95.9587 18.616 96.0547 19H94.0027Z" fill="#444444"/>
</svg>
